<svg width="40" height="41" viewBox="0 0 40 41" fill="none" xmlns="http://www.w3.org/2000/svg">
<path d="M24.4774 40.9863H15.5226C6.94976 40.9863 0 34.0366 0 25.4637V16.509C0 7.93604 6.94971 0.986328 15.5226 0.986328H24.4774C33.0503 0.986328 40 7.93604 40 16.509V25.4637C39.9999 34.0366 33.0502 40.9863 24.4774 40.9863Z" fill="#3A615A"/>
<mask id="mask0_475_24684" style="mask-type:luminance" maskUnits="userSpaceOnUse" x="0" y="0" width="40" height="41">
<path d="M24.4774 40.9863H15.5226C6.94976 40.9863 0 34.0366 0 25.4637V16.509C0 7.93604 6.94971 0.986328 15.5226 0.986328H24.4774C33.0503 0.986328 40 7.93604 40 16.509V25.4637C39.9999 34.0366 33.0502 40.9863 24.4774 40.9863Z" fill="white"/>
</mask>
<g mask="url(#mask0_475_24684)">
<path d="M28.8316 27.3192C28.0179 27.0859 23.8369 26.6842 23.5539 25.9146C22.833 23.9544 22.6729 21.0547 22.6729 21.0547H20.1121H17.5513C17.5513 21.0547 17.3913 23.9544 16.6704 25.9146C16.3873 26.6842 12.2064 27.0859 11.3926 27.3192C10.5789 27.5524 10.4067 28.4972 11.2559 29.5132C12.1052 30.529 10.7831 35.8033 19.8599 35.8033C28.9367 35.8033 28.1191 30.529 28.9684 29.5132C29.8175 28.4972 29.6454 27.5524 28.8316 27.3192Z" fill="#E8B497"/>
<path d="M11.1923 33.4254C13.2478 33.4254 14.914 32.0592 14.914 30.3738C14.914 28.6885 13.2478 27.3223 11.1923 27.3223C9.13694 27.3223 7.4707 28.6885 7.4707 30.3738C7.4707 32.0592 9.13694 33.4254 11.1923 33.4254Z" fill="#E8B497"/>
<path d="M28.8447 33.4938C30.9001 33.4938 32.5663 32.1275 32.5663 30.4422C32.5663 28.7569 30.9001 27.3906 28.8447 27.3906C26.7893 27.3906 25.123 28.7569 25.123 30.4422C25.123 32.1275 26.7893 33.4938 28.8447 33.4938Z" fill="#E8B497"/>
<path d="M20.0525 5.9668C18.6498 5.9668 16.9119 6.57753 15.9888 7.19366C14.4503 8.22064 14.1777 9.47215 14.1777 9.47215C14.273 13.0943 14.7422 17.5285 14.9977 19.1965C15.2532 20.8644 18.6529 23.6187 20.0525 23.6187C21.3997 23.6187 24.8518 20.8644 25.1073 19.1965C25.3628 17.5286 25.8321 13.0944 25.9273 9.47215C25.9273 9.47215 25.563 8.19776 24.2846 7.22121C23.3104 6.47708 21.6701 5.9668 20.0525 5.9668Z" fill="#FDC4A5"/>
<path d="M23.5447 7.70403C23.5447 7.70403 23.8171 1.86982 20.2731 2.5261C16.729 3.18232 17.777 4.95194 15.2351 5.3796C12.6932 5.80725 12.1243 7.5427 12.3295 8.73748C12.5348 9.93226 12.9062 10.8118 12.3295 13.1615C11.8653 15.0531 14.9012 18.5031 14.9012 18.5031C14.9012 18.5031 14.1498 14.4869 15.487 11.8942C17.0172 8.92748 23.5447 7.70403 23.5447 7.70403Z" fill="#341908"/>
<path d="M22.2316 3.83584C22.2316 3.83584 26.2142 1.58553 27.1663 7.70422C27.4459 9.39333 26.3914 9.08254 27.7258 11.0309C29.0602 12.9793 25.3182 17.3013 25.3182 17.3013C25.3182 17.3013 25.8483 13.7818 25.5013 12.5018C24.9856 10.6004 20.7169 7.48912 22.2316 3.83584Z" fill="#341908"/>
<path d="M24.3112 6.93264C24.3112 6.93264 25.5181 10.7295 22.5137 11.1045C19.5092 11.4795 18.7658 11.7138 18.3303 12.7919C17.8948 13.87 16.875 14.0925 15.6823 13.9638C14.4897 13.8351 12.2142 15.6749 11.8652 16.9221C11.8652 16.9221 12.7487 13.5888 13.1683 12.3232C13.588 11.0575 18.575 5.01077 24.3112 6.93264Z" fill="#341908"/>
<path d="M8.98864 51.8356C8.98864 51.8356 10.2056 46.7307 10.9053 43.3208C11.6051 39.9108 12.5808 31.8285 12.5808 31.8285C12.5808 31.8285 8.34037 27.9756 7.66989 29.4228C6.99942 30.8699 6.00788 36.9404 6.14019 39.2232C6.43508 44.3101 4.87625 49.8857 5.2277 50.8715C6.08653 53.2804 8.10681 53.6523 8.98864 51.8356Z" fill="#E8B497"/>
<path d="M31.012 51.7946C31.012 51.7946 29.7951 46.6897 29.0953 43.2797C28.3956 39.8698 27.4199 31.7875 27.4199 31.7875C27.4199 31.7875 31.6603 27.9347 32.3308 29.3817C33.0013 30.8288 33.9928 36.8994 33.8605 39.1822C33.5656 44.2691 35.1244 49.8447 34.773 50.8305C33.9141 53.2393 31.8939 53.6112 31.012 51.7946Z" fill="#E8B497"/>
<path d="M28.6473 27.189C29.271 27.3199 29.7087 27.4117 29.7087 27.4117C29.7087 27.4117 30.3426 29.5709 30.0781 32.2929C29.895 34.3638 29.7623 35.1523 29.9642 36.9437C30.3648 40.4979 31.4158 39.8734 29.6606 44.6105C29.4805 45.0965 27.1937 52.0735 29.5433 58.5591C29.5433 58.5591 26.403 59.5406 21.576 59.5406C21.1374 59.5406 19.4822 59.5406 19.0437 59.5406C14.2168 59.5406 11.0901 58.277 11.0901 58.277C13.1785 52.1603 11.1393 45.0965 10.9592 44.6105C9.20396 39.8734 10.2551 40.4979 10.6556 36.9437C10.8575 35.1523 10.7247 34.3638 10.5417 32.2929C10.2772 29.571 10.696 27.3214 10.696 27.3214C10.696 27.3214 11.1926 27.2185 11.8703 27.0781C11.8703 27.0781 12.1343 31.2292 13.4966 33.0683C15.5215 35.8019 22.2623 33.5985 24.155 31.9842C26.7295 29.7885 28.6473 27.189 28.6473 27.189Z" fill="#F01E42"/>
</g>
</svg>
